<svg width="16" height="16" viewBox="0 0 18 18" fill="none" xmlns="http://www.w3.org/2000/svg"><path d="M17 5V13C17 16.2 16 17 12 17H6C2 17 1 16.2 1 13V5C1 1.8 2 1 6 1H12C16 1 17 1.8 17 5Z" stroke="#3C3F45" stroke-linecap="round" stroke-linejoin="round"></path><path d="M11 3.79999H7" stroke="#3C3F45" stroke-linecap="round" stroke-linejoin="round"></path><path d="M9.00001 14.68C9.85605 14.68 10.55 14.1248 10.55 13.44C10.55 12.7552 9.85605 12.2 9.00001 12.2C8.14397 12.2 7.45001 12.7552 7.45001 13.44C7.45001 14.1248 8.14397 14.68 9.00001 14.68Z" stroke="#3C3F45" stroke-linecap="round" stroke-linejoin="round"></path></svg>