<svg width="16" height="16" viewBox="0 0 16 16" fill="none" xmlns="http://www.w3.org/2000/svg"><path d="M8.35331 13.6133H4.13998C2.03331 13.6133 1.33331 12.2133 1.33331 10.8067V5.19332C1.33331 3.08666 2.03331 2.38666 4.13998 2.38666H8.35331C10.46 2.38666 11.16 3.08666 11.16 5.19332V10.8067C11.16 12.9133 10.4533 13.6133 8.35331 13.6133Z" stroke="#3C3F45" stroke-linecap="round" stroke-linejoin="round"></path><path d="M13.0133 11.4L11.16 10.1V5.89336L13.0133 4.59336C13.92 3.96003 14.6666 4.34669 14.6666 5.46003V10.54C14.6666 11.6534 13.92 12.04 13.0133 11.4Z" stroke="#3C3F45" stroke-linecap="round" stroke-linejoin="round"></path><path d="M7.66669 7.33331C8.21897 7.33331 8.66669 6.8856 8.66669 6.33331C8.66669 5.78103 8.21897 5.33331 7.66669 5.33331C7.1144 5.33331 6.66669 5.78103 6.66669 6.33331C6.66669 6.8856 7.1144 7.33331 7.66669 7.33331Z" stroke="#3C3F45" stroke-linecap="round" stroke-linejoin="round"></path></svg>